<svg width="176" height="48" viewBox="0 0 176 48" fill="none" xmlns="http://www.w3.org/2000/svg">
<path d="M0 47V0.454544H12.6364V18.6364H29.3636V0.454544H42V47H29.3636V28.8182H12.6364V47H0ZM60.6364 0.454544V47H48V0.454544H60.6364ZM66.625 47V0.454544H100.17V10.6364H79.2614V18.6364H98.4432V28.8182H79.2614V36.8182H100.08V47H66.625ZM113.438 47.7273C111.68 47.7273 110.172 47.1136 108.915 45.8864C107.672 44.6439 107.059 43.1364 107.074 41.3636C107.059 39.6364 107.672 38.1591 108.915 36.9318C110.172 35.7045 111.68 35.0909 113.438 35.0909C115.104 35.0909 116.574 35.7045 117.847 36.9318C119.134 38.1591 119.786 39.6364 119.801 41.3636C119.786 42.5455 119.475 43.6212 118.869 44.5909C118.278 45.5455 117.506 46.3106 116.551 46.8864C115.597 47.447 114.559 47.7273 113.438 47.7273ZM126.438 47V0.454544H139.074V36.8182H157.892V47H126.438ZM175.636 0.454544V47H163V0.454544H175.636Z" fill="white"/>
</svg>
